<?xml version="1.0" standalone="no"?>
<!DOCTYPE svg PUBLIC "-//W3C//DTD SVG 20010904//EN"
 "http://www.w3.org/TR/2001/REC-SVG-20010904/DTD/svg10.dtd">
<svg version="1.0" xmlns="http://www.w3.org/2000/svg"
 width="1024.000000pt" height="1024.000000pt" viewBox="0 0 1024.000000 1024.000000"
 preserveAspectRatio="xMidYMid meet">
<metadata>
Created by potrace 1.14, written by Peter Selinger 2001-2017
</metadata>
<g transform="translate(0.000000,1024.000000) scale(0.100000,-0.100000)"
fill="#000000" stroke="none">
<path d="M2330 10005 l0 -235 -465 0 -465 0 0 -230 0 -230 -235 0 -235 0 0
-235 0 -235 -230 0 -230 0 0 -465 0 -465 -235 0 -235 0 0 -2790 0 -2790 235 0
235 0 0 -465 0 -465 230 0 230 0 0 -235 0 -235 235 0 235 0 0 -230 0 -230 465
0 465 0 0 -235 0 -235 2790 0 2790 0 0 235 0 235 465 0 465 0 0 230 0 230 235
0 235 0 0 235 0 235 230 0 230 0 0 465 0 465 235 0 235 0 0 2790 0 2790 -235
0 -235 0 0 465 0 465 -230 0 -230 0 0 235 0 235 -235 0 -235 0 0 230 0 230
-465 0 -465 0 0 235 0 235 -2790 0 -2790 0 0 -235z"/>
</g>
</svg>
